<?xml version="1.0" standalone="no"?>
<!DOCTYPE svg PUBLIC "-//W3C//DTD SVG 20010904//EN"
 "http://www.w3.org/TR/2001/REC-SVG-20010904/DTD/svg10.dtd">
<svg version="1.0" xmlns="http://www.w3.org/2000/svg"
 width="192.000000pt" height="192.000000pt" viewBox="0 0 192.000000 192.000000"
 preserveAspectRatio="xMidYMid meet">
<metadata>
Created by potrace 1.15, written by Peter Selinger 2001-2017
</metadata>
<g transform="translate(0.000000,192.000000) scale(0.100000,-0.100000)"
fill="#000000" stroke="none">
<path d="M394 1752 c-61 -12 -149 -58 -185 -99 -55 -64 -73 -117 -73 -213 1
-99 21 -155 80 -220 63 -69 121 -93 246 -98 124 -5 205 14 239 56 26 34 11 46
-32 25 -23 -12 -64 -19 -125 -21 -105 -4 -148 11 -202 73 -54 60 -65 93 -70
190 -3 83 -1 94 25 145 18 36 43 65 71 85 40 28 50 30 131 30 77 0 92 -3 124
-25 30 -21 37 -32 39 -65 4 -60 31 -54 40 10 4 27 9 59 12 71 5 19 -1 24 -42
38 -53 19 -215 29 -278 18z"/>
<path d="M765 1740 c-10 -15 4 -30 28 -30 46 0 48 -8 53 -196 3 -98 2 -215 -3
-259 l-8 -80 -35 -5 c-22 -3 -35 -10 -35 -20 0 -12 20 -16 108 -18 100 -2 108
-1 105 15 -2 12 -14 19 -36 21 -23 2 -33 9 -37 25 -3 12 -4 109 -3 215 l3 192
157 -187 c225 -269 236 -281 281 -289 l37 -6 1 268 c1 148 4 280 8 294 5 17
16 26 36 30 18 3 31 12 33 23 3 15 -7 17 -102 17 -99 0 -106 -1 -106 -20 0
-15 7 -20 28 -20 50 0 52 -9 52 -212 0 -103 -3 -188 -8 -188 -9 0 -152 166
-279 325 l-89 110 -91 3 c-55 2 -94 -1 -98 -8z"/>
<path d="M1510 1731 c0 -15 8 -21 33 -23 30 -3 32 -6 39 -48 9 -59 8 -428 -1
-460 -5 -19 -14 -26 -39 -28 -24 -2 -32 -8 -32 -23 0 -18 8 -19 141 -19 128 0
140 2 137 17 -2 11 -15 20 -33 23 -25 4 -31 11 -37 45 -11 61 -9 440 2 469 7
20 16 26 40 26 23 0 30 4 30 20 0 19 -7 20 -140 20 -132 0 -140 -1 -140 -19z"/>
<path d="M130 995 l0 -35 830 0 830 0 0 35 0 35 -830 0 -830 0 0 -35z"/>
<path d="M265 796 c-14 -14 -25 -32 -25 -39 0 -25 34 -58 81 -81 37 -18 44
-26 44 -50 0 -61 -67 -61 -103 1 l-22 38 0 -45 0 -45 51 -2 c61 -3 104 17 113
52 10 38 -9 63 -70 90 -44 19 -54 28 -54 48 0 56 73 61 93 7 14 -38 27 -39 27
-2 0 39 -9 47 -62 50 -40 3 -51 0 -73 -22z"/>
<path d="M453 809 c14 -8 17 -25 17 -114 0 -89 -3 -106 -17 -114 -14 -8 -5
-10 37 -10 42 0 51 2 38 10 -13 7 -18 23 -18 54 0 41 2 45 25 45 36 0 71 19
84 47 16 36 14 49 -15 72 -22 17 -41 21 -98 21 -53 -1 -67 -3 -53 -11z"/>
<path d="M663 809 c14 -8 17 -25 17 -114 0 -89 -3 -106 -17 -114 -13 -8 10
-10 85 -11 94 0 102 2 102 19 0 11 3 26 6 35 11 28 -10 17 -28 -15 -16 -27
-22 -30 -60 -27 l-43 3 -3 58 c-3 55 -2 57 21 57 14 0 31 -10 40 -22 15 -22
16 -21 16 27 0 48 -1 49 -16 28 -9 -13 -26 -23 -39 -23 -22 0 -24 4 -24 50 l0
50 40 0 c33 0 42 -4 52 -25 15 -34 28 -32 28 5 l0 30 -97 0 c-72 -1 -93 -3
-80 -11z"/>
<path d="M1128 810 c21 -9 22 -15 22 -115 0 -100 -1 -106 -22 -115 -16 -6 12
-9 87 -9 75 0 103 3 88 9 -26 10 -27 17 -13 54 8 22 16 26 53 26 41 0 44 -2
54 -35 9 -29 9 -37 -5 -45 -13 -7 -3 -9 37 -10 52 0 53 1 33 18 -11 9 -38 64
-60 122 -22 57 -44 106 -49 107 -4 2 -28 -49 -52 -112 -35 -94 -48 -116 -67
-121 -39 -10 -44 2 -44 112 0 99 1 105 23 114 16 6 6 9 -43 9 -49 0 -59 -3
-42 -9z"/>
<path d="M115 366 c-14 -14 -25 -32 -25 -39 0 -25 34 -58 81 -81 37 -18 44
-26 44 -50 0 -61 -67 -61 -103 1 l-22 38 0 -45 0 -45 51 -2 c61 -3 104 17 113
52 10 38 -9 63 -70 90 -44 19 -54 28 -54 48 0 56 73 61 93 7 14 -38 27 -39 27
-2 0 39 -9 47 -62 50 -40 3 -51 0 -73 -22z"/>
<path d="M303 379 c14 -8 17 -25 17 -114 0 -89 -3 -106 -17 -114 -13 -8 10
-10 85 -11 94 0 102 2 102 19 0 11 3 26 6 35 11 28 -10 17 -28 -15 -16 -27
-22 -30 -60 -27 l-43 3 -3 58 c-3 55 -2 57 21 57 14 0 31 -10 40 -22 15 -22
16 -21 16 27 0 48 -1 49 -16 28 -9 -13 -26 -23 -39 -23 -22 0 -24 4 -24 50 l0
50 40 0 c33 0 42 -4 52 -25 15 -34 28 -32 28 5 l0 30 -97 0 c-72 -1 -93 -3
-80 -11z"/>
<path d="M600 383 c-55 -21 -90 -99 -70 -157 16 -49 51 -77 102 -81 28 -3 34
-2 18 3 -61 17 -80 47 -80 127 0 46 4 60 25 80 32 33 68 32 94 -1 12 -15 21
-33 21 -40 0 -8 3 -14 6 -14 9 0 34 28 34 38 0 14 35 42 53 42 15 0 17 -14 17
-110 0 -105 -1 -111 -22 -120 -17 -6 -7 -9 42 -9 49 0 59 3 43 9 -22 9 -23 15
-23 120 l0 110 25 0 c17 0 29 -9 40 -30 20 -39 25 -38 25 5 l0 35 -110 0 c-98
0 -110 -2 -111 -17 0 -15 -2 -15 -7 -3 -7 16 -92 25 -122 13z"/>
<path d="M1159 367 c-87 -58 -62 -203 38 -223 17 -3 48 -1 68 6 95 31 101 187
10 226 -48 20 -77 18 -116 -9z m96 7 c25 -10 45 -58 45 -109 0 -102 -67 -149
-127 -89 -23 23 -25 31 -21 96 3 59 8 73 27 89 24 20 48 24 76 13z"/>
<path d="M1383 374 c26 -14 27 -16 27 -109 0 -86 -2 -95 -22 -109 -21 -15 -20
-16 32 -15 47 0 52 2 33 11 -21 10 -23 18 -23 95 0 45 1 83 3 83 2 0 34 -43
72 -95 39 -52 73 -95 78 -95 4 0 7 49 7 109 0 102 2 111 22 125 21 15 20 16
-32 15 -42 0 -50 -2 -33 -9 26 -10 36 -51 31 -125 l-3 -50 -70 93 c-68 90 -71
92 -110 92 l-40 -1 28 -15z"/>
<path d="M1675 366 c-14 -14 -25 -32 -25 -39 0 -25 34 -58 81 -81 37 -18 44
-26 44 -50 0 -61 -67 -61 -103 1 l-22 38 0 -45 0 -45 51 -2 c61 -3 104 17 113
52 10 38 -9 63 -70 90 -44 19 -54 28 -54 48 0 56 73 61 93 7 14 -38 27 -39 27
-2 0 39 -9 47 -62 50 -40 3 -51 0 -73 -22z"/>
</g>
</svg>
