 <svg version="1.0" xmlns="http://www.w3.org/2000/svg" width="700.000000pt" height="700.000000pt" viewBox="0 0 700.000000 700.000000" preserveAspectRatio="xMidYMid meet">
<metadata>
Created by potrace 1.12, written by Peter Selinger 2001-2015
</metadata>
<g transform="translate(0.000000,700.000000) scale(0.100000,-0.100000)" fill="#000000" stroke="none">
<path d="M1679 6415 c-3 -2 -32 -5 -65 -6 -32 -2 -64 -6 -69 -10 -6 -5 -20 -8
-30 -8 -70 1 -213 -30 -265 -56 -14 -7 -43 -16 -65 -20 -22 -4 -47 -13 -55
-20 -20 -16 -80 -45 -95 -45 -7 0 -20 -9 -30 -20 -10 -11 -22 -20 -27 -20 -17
0 -151 -115 -218 -187 -65 -68 -130 -155 -130 -173 0 -5 -11 -26 -25 -46 -14
-21 -28 -49 -32 -63 -3 -14 -16 -48 -29 -76 -38 -83 -64 -268 -59 -425 2 -74
6 -151 9 -170 3 -19 8 -53 11 -75 7 -45 22 -100 35 -130 5 -11 16 -42 25 -70
9 -27 28 -72 42 -100 14 -27 29 -55 32 -62 21 -42 92 -133 157 -202 69 -74
218 -191 242 -191 5 0 15 -6 21 -14 6 -7 33 -21 59 -31 26 -9 66 -26 90 -37
23 -11 68 -26 100 -33 31 -8 89 -21 127 -31 58 -15 115 -18 340 -19 257 0 388
11 420 35 6 4 30 11 55 15 25 4 66 18 91 32 25 13 52 25 60 27 58 11 147 78
166 125 9 20 25 49 36 65 l20 29 -22 18 c-29 24 -56 24 -89 0 -61 -42 -240
-104 -352 -121 -162 -24 -470 -8 -555 30 -11 5 -40 16 -65 24 -40 12 -84 38
-180 103 -32 21 -200 193 -200 204 0 4 -13 27 -29 51 -54 82 -133 281 -123
312 1 4 -3 15 -10 24 -18 21 -19 512 -1 534 7 8 10 17 7 20 -5 6 30 127 47
160 59 115 84 153 144 217 67 70 175 161 192 161 4 0 35 13 68 30 79 39 248
70 376 70 95 0 276 -28 317 -49 9 -5 40 -20 68 -34 70 -34 184 -124 196 -156
5 -14 8 -74 7 -133 -3 -123 4 -138 61 -138 46 0 70 24 70 71 0 19 7 106 16
194 11 116 21 171 36 201 17 34 19 44 9 63 -7 13 -15 20 -19 17 -3 -3 -15 0
-26 7 -12 7 -39 18 -61 25 -22 6 -78 22 -125 36 -74 22 -210 49 -320 62 -56 7
-376 15 -381 9z"></path>
<path d="M2822 6372 c-30 -4 -44 -42 -34 -90 l8 -37 88 -8 c102 -9 148 -25
170 -59 25 -38 38 -467 33 -1051 -5 -534 -18 -776 -42 -814 -25 -37 -65 -51
-160 -55 l-89 -4 -8 -34 c-9 -47 0 -80 26 -88 11 -4 185 -5 385 -2 l365 5 8
30 c4 17 4 44 0 59 l-8 29 -93 3 c-101 3 -147 21 -167 65 -18 37 -35 570 -34
1044 1 231 -2 428 -5 438 -6 14 -1 17 29 17 31 0 40 -5 54 -31 9 -17 55 -78
102 -135 47 -57 104 -127 127 -156 23 -29 79 -96 125 -149 45 -53 94 -110 108
-128 14 -18 79 -96 145 -174 66 -78 181 -214 255 -302 74 -88 140 -164 146
-170 6 -5 65 -73 129 -150 187 -221 274 -315 291 -308 8 3 22 2 32 -2 9 -4 33
-9 52 -11 19 -2 53 -8 76 -14 22 -7 56 -10 75 -8 32 3 34 5 32 38 -19 358 -24
1482 -8 1735 18 278 23 320 46 344 25 26 80 41 156 41 71 0 83 11 83 79 0 29
-5 43 -17 48 -10 5 -135 6 -278 3 -143 -3 -305 -2 -360 2 -114 8 -125 2 -125
-62 0 -59 14 -67 115 -73 98 -5 146 -22 167 -60 10 -17 15 -184 22 -688 5
-367 6 -678 2 -692 -8 -32 -32 -41 -51 -19 -70 82 -182 209 -191 217 -19 17
-349 407 -394 465 -14 18 -69 85 -123 149 -53 64 -109 130 -122 146 -47 56
-260 324 -310 389 -58 76 -79 103 -103 131 -10 11 -27 34 -40 52 -12 17 -32
35 -43 38 -21 7 -604 13 -647 7z"></path>
<path d="M5499 6358 c-13 -25 -11 -81 4 -102 10 -14 30 -18 98 -20 84 -3 123
-15 145 -45 31 -42 39 -221 39 -911 0 -377 -2 -741 -4 -810 -5 -187 -22 -208
-171 -212 -79 -2 -94 -5 -106 -22 -19 -28 -18 -79 4 -106 16 -19 21 -21 41
-11 16 9 144 12 490 10 258 -1 474 2 480 5 13 9 15 81 1 105 -8 15 -20 17 -77
15 -81 -4 -144 16 -169 54 -14 22 -19 65 -25 247 -8 244 -3 1503 7 1577 10 77
64 108 185 106 36 -1 71 2 77 6 17 10 15 101 -2 115 -10 9 -150 12 -511 14
-457 2 -498 1 -506 -15z"></path>
<path d="M477 3752 c-2 -9 -3 -69 -3 -132 l1 -115 3025 0 3025 0 2 115 c1 64
-2 122 -7 129 -7 12 -57 14 -282 12 -150 -1 -283 -5 -295 -7 -12 -3 -27 -3
-33 1 -15 9 -460 9 -483 0 -9 -4 -34 -4 -55 0 -46 10 -1237 9 -1252 0 -6 -4
-22 -4 -35 -1 -17 4 -1988 7 -3352 5 -38 0 -105 0 -130 1 -10 0 -41 2 -70 4
-43 4 -53 2 -56 -12z m5988 -122 l0 -75 -2965 0 -2965 0 -3 64 c-2 35 -1 70 2
77 5 12 481 14 2968 12 l2963 -3 0 -75z"></path>
<path d="M1052 2992 c-102 -37 -171 -130 -172 -231 0 -129 51 -194 207 -260
174 -74 206 -92 230 -136 33 -58 32 -147 -2 -197 -31 -45 -77 -62 -160 -56
-104 6 -167 64 -224 205 -24 59 -31 68 -56 71 l-28 4 6 -78 c4 -42 7 -112 7
-156 l0 -78 28 0 c16 0 32 8 39 19 12 19 14 18 85 -12 63 -28 84 -32 158 -31
64 0 96 5 130 20 104 48 160 126 168 235 6 87 -14 144 -68 193 -38 34 -130 86
-180 101 -14 4 -58 23 -97 42 -59 27 -77 42 -98 77 -65 110 -1 226 125 226 92
0 161 -64 207 -191 26 -73 30 -80 53 -77 14 2 24 6 23 11 -2 4 -3 70 -3 147
l0 140 -28 0 c-16 0 -32 -8 -39 -20 -12 -19 -14 -18 -75 12 -80 40 -161 46
-236 20z"></path>
<path d="M3531 2995 c-202 -57 -321 -231 -321 -470 0 -186 68 -329 196 -411
136 -87 329 -81 453 13 38 29 111 137 111 164 0 19 -42 38 -47 22 -2 -6 -18
-34 -36 -64 -74 -124 -230 -165 -353 -93 -138 80 -204 298 -158 521 36 173
132 273 264 273 68 0 109 -19 152 -70 35 -40 88 -153 88 -185 0 -8 8 -18 18
-23 38 -20 42 -7 42 154 l0 154 -30 0 c-18 0 -33 -6 -36 -15 -8 -21 -22 -19
-90 11 -74 33 -177 40 -253 19z"></path>
<path d="M1576 2971 c-12 -18 2 -28 54 -41 29 -7 55 -20 60 -30 6 -11 10 -161
10 -372 0 -401 2 -391 -75 -402 -36 -6 -45 -11 -45 -27 0 -18 9 -19 196 -19
181 0 195 1 192 17 -2 12 -19 21 -49 28 -79 17 -79 17 -79 190 l0 152 93 5
c110 7 192 35 249 86 62 56 82 104 83 194 0 69 -3 80 -30 120 -19 26 -52 55
-85 73 l-55 30 -256 3 c-177 3 -259 0 -263 -7z m461 -77 c43 -32 65 -78 70
-148 11 -131 -56 -205 -192 -214 l-75 -5 0 198 0 197 84 -3 c67 -3 91 -8 113
-25z"></path>
<path d="M2365 2970 c-10 -17 4 -29 48 -41 82 -21 77 3 77 -404 0 -406 4 -386
-74 -398 -44 -7 -62 -20 -52 -36 11 -17 745 -15 750 2 3 6 7 65 10 130 5 116
5 117 -17 117 -18 0 -29 -14 -54 -63 -62 -125 -99 -147 -250 -147 -102 0 -151
14 -163 46 -6 14 -10 95 -10 180 l0 154 84 0 c103 0 131 -17 151 -95 10 -43
16 -50 36 -50 l24 0 3 178 2 178 -27 -3 c-22 -2 -29 -9 -34 -37 -8 -41 -37
-82 -70 -98 -13 -7 -57 -13 -96 -13 l-73 0 0 175 0 175 131 0 c154 0 167 -6
224 -100 24 -40 43 -60 56 -60 18 0 19 8 19 110 l0 110 -344 0 c-219 0 -347
-4 -351 -10z"></path>
<path d="M4040 2962 c0 -14 15 -23 60 -35 48 -14 63 -23 70 -43 6 -14 10 -171
10 -370 0 -394 4 -376 -89 -389 -41 -6 -51 -11 -51 -26 0 -18 10 -19 206 -19
190 0 205 1 202 18 -2 11 -20 21 -53 29 -88 22 -85 6 -85 405 l0 349 23 23
c14 14 42 26 70 30 37 6 47 11 47 27 0 18 -9 19 -205 19 -192 0 -205 -1 -205
-18z"></path>
<path d="M4898 2938 c-9 -24 -60 -153 -113 -288 -169 -431 -178 -453 -212
-486 -17 -18 -47 -34 -67 -38 -27 -5 -36 -12 -36 -26 0 -19 8 -20 170 -20 163
0 170 1 170 20 0 11 -6 20 -12 20 -28 0 -88 22 -103 36 -19 19 -14 55 24 157
l27 72 150 3 c113 2 154 -1 161 -10 22 -30 86 -219 76 -229 -5 -5 -32 -15 -59
-22 -31 -8 -49 -17 -49 -27 0 -13 29 -15 188 -18 177 -2 187 -1 187 16 0 13
-12 22 -39 30 -52 16 -82 49 -108 119 -22 59 -57 148 -153 393 -29 74 -70 180
-91 235 -34 92 -39 100 -66 103 -25 2 -30 -2 -45 -40z m68 -320 c32 -83 61
-155 62 -160 2 -4 -53 -8 -123 -8 l-127 0 7 27 c12 48 109 293 115 293 4 0 34
-68 66 -152z"></path>
<path d="M5435 2970 c-10 -16 3 -29 45 -41 78 -24 75 -8 75 -405 0 -398 4
-379 -78 -399 -26 -6 -42 -16 -42 -25 0 -13 47 -15 352 -18 l351 -2 6 87 c4
49 9 109 12 136 6 44 5 47 -18 47 -18 0 -29 -10 -45 -42 -51 -102 -86 -142
-138 -160 -58 -20 -167 -23 -214 -7 -19 7 -36 22 -42 36 -11 31 -12 703 0 721
5 8 33 22 62 32 31 10 54 23 54 31 0 11 -35 15 -187 17 -119 1 -189 -1 -193
-8z"></path>
<path d="M540 1441 c-77 -25 -142 -76 -172 -135 -17 -31 -22 -58 -22 -112 1
-125 58 -192 216 -256 132 -53 180 -80 212 -121 28 -35 31 -46 31 -107 0 -78
-18 -113 -76 -143 -55 -29 -156 -20 -211 19 -50 35 -101 108 -124 179 -21 63
-30 74 -54 68 -18 -5 -20 -14 -20 -92 0 -47 3 -116 7 -153 5 -62 8 -68 29 -68
13 0 29 9 37 20 13 19 15 19 86 -11 96 -40 163 -47 246 -24 74 20 152 81 185
145 44 85 34 206 -21 274 -38 45 -90 76 -224 131 -166 69 -195 98 -195 199 0
93 61 143 164 134 86 -7 144 -60 182 -168 36 -101 36 -100 60 -100 l25 0 -3
148 c-3 145 -3 147 -26 150 -13 2 -32 -4 -43 -14 -19 -17 -22 -17 -77 10 -60
30 -163 43 -212 27z"></path>
<path d="M2230 1441 c-148 -32 -282 -173 -321 -336 -15 -64 -15 -216 0 -279
60 -253 305 -393 543 -311 60 21 140 93 179 159 34 61 35 67 9 84 -18 11 -22
8 -40 -28 -12 -23 -37 -59 -57 -81 -130 -144 -349 -104 -442 82 -43 85 -54
155 -48 284 9 185 60 292 167 348 48 25 64 28 120 25 105 -6 162 -59 210 -196
24 -67 31 -77 54 -80 l26 -3 0 155 0 156 -27 0 c-14 0 -35 -7 -45 -16 -16 -16
-22 -15 -80 11 -67 29 -181 41 -248 26z"></path>
<path d="M4380 1440 c-119 -28 -228 -118 -285 -234 -95 -192 -62 -437 79 -585
165 -172 436 -173 600 -1 64 67 103 139 122 229 47 222 -38 445 -207 544 -84
49 -215 69 -309 47z m188 -66 c79 -33 139 -117 167 -236 17 -72 20 -241 5
-318 -23 -120 -92 -221 -176 -256 -44 -19 -136 -18 -182 2 -80 33 -139 118
-168 241 -19 82 -14 292 9 364 34 104 87 173 157 203 46 20 141 20 188 0z"></path>
<path d="M6210 1435 c-91 -29 -164 -116 -176 -209 -11 -77 12 -143 70 -201 44
-44 69 -58 176 -100 140 -55 190 -93 210 -162 16 -52 6 -123 -22 -159 -28 -35
-76 -54 -140 -54 -106 0 -196 76 -244 207 -18 49 -33 74 -46 79 -11 3 -23 2
-27 -3 -3 -4 -4 -75 -1 -158 5 -150 5 -150 29 -153 16 -3 30 4 41 18 l17 22
39 -20 c149 -76 295 -64 404 34 60 54 81 107 81 200 0 127 -53 191 -213 256
-191 77 -239 113 -254 194 -9 48 2 79 40 121 30 33 39 37 93 41 110 8 173 -45
222 -186 24 -68 30 -77 52 -77 l24 0 -1 145 c-2 141 -2 145 -24 148 -12 2 -30
-4 -41 -14 -19 -17 -22 -17 -77 10 -69 35 -164 43 -232 21z"></path>
<path d="M1050 1400 c0 -16 9 -21 42 -26 23 -4 52 -17 65 -30 l23 -23 0 -356
c0 -403 4 -386 -84 -399 -36 -6 -46 -11 -46 -27 0 -18 11 -19 374 -19 l374 0
6 63 c17 201 17 197 -8 197 -18 0 -30 -13 -56 -64 -17 -35 -45 -79 -60 -98
l-28 -33 -145 -3 c-198 -5 -188 -16 -185 206 l3 167 65 3 c47 2 75 -3 100 -15
36 -19 69 -70 70 -110 0 -18 6 -23 25 -23 l25 0 0 175 0 175 -25 0 c-18 0 -25
-5 -25 -20 0 -12 -9 -39 -21 -61 -25 -51 -66 -69 -154 -69 l-65 0 2 178 3 177
90 3 c134 5 169 -3 212 -45 19 -20 44 -56 55 -80 15 -34 24 -43 43 -43 l25 0
0 110 0 110 -350 0 c-343 0 -350 0 -350 -20z"></path>
<path d="M2692 1298 c3 -105 5 -123 20 -126 11 -2 26 16 49 63 52 106 106 141
204 133 l40 -3 3 -382 2 -382 -22 -15 c-13 -7 -44 -17 -70 -21 -39 -5 -48 -10
-48 -26 0 -19 7 -19 213 -17 177 3 212 5 212 17 0 10 -23 22 -62 33 -38 11
-67 26 -73 38 -7 12 -9 148 -8 387 l3 368 35 3 c104 10 153 -21 213 -133 50
-94 61 -83 65 63 l3 122 -391 0 -391 0 3 -122z"></path>
<path d="M3535 1410 c-11 -17 3 -28 55 -40 83 -20 80 -5 80 -411 0 -402 6
-373 -82 -393 -35 -7 -53 -17 -53 -26 0 -13 32 -15 203 -18 193 -2 202 -2 202
17 0 14 -12 22 -47 31 -88 22 -83 -5 -83 406 l0 364 23 14 c12 8 41 17 65 21
32 5 42 11 42 26 0 18 -10 19 -199 19 -123 0 -202 -4 -206 -10z"></path>
<path d="M4962 1403 c2 -10 24 -25 53 -36 113 -42 118 -61 113 -428 -4 -337
-5 -339 -93 -364 -42 -13 -55 -21 -55 -36 0 -18 9 -19 185 -19 176 0 185 1
185 19 0 15 -13 23 -52 35 -105 31 -102 23 -106 369 -2 158 0 287 5 287 4 -1
47 -56 95 -123 48 -67 166 -228 261 -357 157 -214 176 -235 205 -238 l32 -3 0
368 c1 356 6 443 28 465 6 6 34 18 64 28 30 10 53 23 53 31 0 11 -33 14 -185
14 -156 0 -185 -2 -185 -15 0 -8 14 -19 30 -24 77 -23 104 -39 116 -70 15 -37
26 -556 12 -556 -4 0 -118 151 -253 335 l-245 335 -133 0 c-121 0 -133 -2
-130 -17z"></path>
</g>
</svg>